<svg xmlns:xlink="http://www.w3.org/1999/xlink" width="69.459" xmlns="http://www.w3.org/2000/svg" height="48.31" id="screenshot-b3350658-e2bb-809f-8001-7938613ea95d" viewBox="0 0 69.459 48.31" style="-webkit-print-color-adjust: exact;" fill="none" version="1.1"><g id="shape-b3350658-e2bb-809f-8001-7938613ea95d" rx="0" ry="0"><g id="shape-b3350658-e2bb-809f-8001-79362dff97cf"><g id="fills-b3350658-e2bb-809f-8001-79362dff97cf"><ellipse rx="23.999999999999886" ry="7.360769974300581" cx="33.6561437914653" cy="23.680551571464946" transform="matrix(0.975478,-0.220099,0.220099,0.975478,-4.386729,7.988375)" style="fill: rgb(177, 178, 181); fill-opacity: 0;"/></g><g id="strokes-b3350658-e2bb-809f-8001-79362dff97cf"><g class="stroke-shape"><ellipse rx="23.999999999999886" ry="7.360769974300581" cx="33.6561437914653" cy="23.680551571464946" transform="matrix(0.975478,-0.220099,0.220099,0.975478,-4.386729,7.988375)" style="fill: none; stroke-width: 1; stroke: rgb(255, 247, 181); stroke-opacity: 1;"/></g></g></g><g id="shape-b3350658-e2bb-809f-8001-79367db168ff"><g id="fills-b3350658-e2bb-809f-8001-79367db168ff"><ellipse rx="32.909090582182046" ry="6.647779977295102" cx="33.94960529668742" cy="25.69018647421416" transform="matrix(0.867832,-0.496858,0.496858,0.867832,-8.277317,20.263546)" style="fill: rgb(177, 178, 181); fill-opacity: 0;"/></g><g id="strokes-b3350658-e2bb-809f-8001-79367db168ff"><g class="stroke-shape"><ellipse rx="32.909090582182046" ry="6.647779977295102" cx="33.94960529668742" cy="25.69018647421416" transform="matrix(0.867832,-0.496858,0.496858,0.867832,-8.277317,20.263546)" style="fill: none; stroke-width: 1; stroke: rgb(210, 220, 255); stroke-opacity: 1;"/></g></g></g><g id="shape-b3350658-e2bb-809f-8001-79358696b29c"><g id="fills-b3350658-e2bb-809f-8001-79358696b29c"><ellipse rx="8.986222094275433" ry="8.986222094311529" cx="36.942072574743065" cy="18.993741325358542" transform="matrix(0.954838,0.297128,-0.297128,0.954838,7.311956,-10.118716)" style="fill: rgb(255, 106, 106); fill-opacity: 1;"/></g></g><g id="shape-b3350658-e2bb-809f-8001-7935ce9defa0"><g id="fills-b3350658-e2bb-809f-8001-7935ce9defa0"><ellipse rx="3.8883257881169015" ry="3.8883257881324766" cx="10.756335679783604" cy="26.532749861653826" transform="matrix(0.954838,0.297128,-0.297128,0.954838,8.369398,-1.997727)" style="fill: rgb(255, 197, 142); fill-opacity: 1;"/></g></g><g id="shape-b3350658-e2bb-809f-8001-7937f7428149"><g id="fills-b3350658-e2bb-809f-8001-7937f7428149"><ellipse rx="2.1938613376336207" ry="2.1938613376423177" cx="14.745479295288817" cy="36.97719420912057" transform="matrix(0.954838,0.297128,-0.297128,0.954838,11.652891,-2.711317)" style="fill: rgb(255, 197, 142); fill-opacity: 1;"/></g></g><g id="shape-b3350658-e2bb-809f-8001-79370db8c0e1"><g id="fills-b3350658-e2bb-809f-8001-79370db8c0e1"><ellipse rx="2.098649063396522" ry="2.098649063404821" cx="13.454970607424912" cy="12.208149148621317" transform="matrix(0.954838,0.297128,-0.297128,0.954838,4.235037,-3.446498)" style="fill: rgb(186, 255, 142); fill-opacity: 1;"/></g></g><g id="shape-b3350658-e2bb-809f-8001-7937661fcd22"><g id="fills-b3350658-e2bb-809f-8001-7937661fcd22"><ellipse rx="2.098649063396465" ry="2.098649063404878" cx="65.63559886391329" cy="30.1997273491138" transform="matrix(0.954838,0.297128,-0.297128,0.954838,11.93743,-18.138271)" style="fill: rgb(186, 255, 142); fill-opacity: 1;"/></g></g><g id="shape-b3350658-e2bb-809f-8001-79372f369d20"><g id="fills-b3350658-e2bb-809f-8001-79372f369d20"><ellipse rx="4.2025775752048276" ry="4.202577575221653" cx="50.650344486067695" cy="35.591240628044716" transform="matrix(0.954838,0.297128,-0.297128,0.954838,12.862631,-13.442243)" style="fill: rgb(245, 142, 255); fill-opacity: 1;"/></g></g><g id="shape-b3350658-e2bb-809f-8001-79376b839583"><g id="fills-b3350658-e2bb-809f-8001-79376b839583"><ellipse rx="2.512349400914786" ry="2.5123494009247906" cx="44.504969687043285" cy="3.1453747990310603" transform="matrix(0.954838,0.297128,-0.297128,0.954838,2.944524,-13.081611)" style="fill: rgb(255, 142, 180); fill-opacity: 1;"/></g></g><g id="shape-b3350658-e2bb-809f-8001-79376fcc53f4"><g id="fills-b3350658-e2bb-809f-8001-79376fcc53f4"><ellipse rx="1.0928781607962037" ry="1.0928781608006943" cx="1.368245763953439" cy="34.90392175917765" transform="matrix(0.954838,0.297128,-0.297128,0.954838,10.432718,1.169797)" style="fill: rgb(142, 162, 255); fill-opacity: 1;"/></g></g><g id="shape-b3350658-e2bb-809f-8001-79361645f42d"><g id="fills-b3350658-e2bb-809f-8001-79361645f42d"><ellipse rx="1.8458540247368092" ry="1.8458540247441988" cx="32.48974778970154" cy="43.25863602352081" transform="matrix(0.954838,0.297128,-0.297128,0.954838,14.320654,-7.699948)" style="fill: rgb(142, 166, 255); fill-opacity: 1;"/></g></g><g id="shape-b3350658-e2bb-809f-8001-7935a6c06a49"><g id="fills-b3350658-e2bb-809f-8001-7935a6c06a49"><ellipse rx="5.176684515682894" ry="5.176684515703641" cx="62.97842281276968" cy="8.893970708323195" transform="matrix(0.954838,0.297128,-0.297128,0.954838,5.486895,-18.310967)" style="fill: rgb(142, 208, 255); fill-opacity: 1;"/></g></g></g></svg>